# xmcd
#
# Track frame offsets:
#	150
#	15977
#	41487
#
# Disc length: 1629 seconds
#
# Revision: 2
# Processed by: cddbd v1.5.2PL0 Copyright (c) Steve Scherf et al.
# Submitted via: audiograbber 1.83.01
#
DISCID=15065b03
DTITLE=Linkin Park - Crawling  (Maxi)
DYEAR=2000
DGENRE=Nu-Metal
TTITLE0=Crawling  (Album Version)
TTITLE1=Papercut (Live From The BBC)
TTITLE2=Backstage video footage
EXTD=YEAR: 2000
EXTT0=
EXTT1=
EXTT2=
PLAYORDER=
